<svg xmlns="http://www.w3.org/2000/svg" version="1.1" xmlns:xlink="http://www.w3.org/1999/xlink" xmlns:svgjs="http://svgjs.dev/svgjs" width="1440" height="560" preserveAspectRatio="none" viewBox="0 0 1440 560"><g mask="url(&quot;#SvgjsMask1176&quot;)" fill="none"><rect width="1440" height="560" x="0" y="0" fill="url(&quot;#SvgjsLinearGradient1177&quot;)"></rect><path d="M0 0L202.74 0L0 144.14z" fill="rgba(255, 255, 255, .1)"></path><path d="M0 144.14L202.74 0L587.72 0L0 181.82z" fill="rgba(255, 255, 255, .075)"></path><path d="M0 181.82L587.72 0L954.81 0L0 206.76999999999998z" fill="rgba(255, 255, 255, .05)"></path><path d="M0 206.76999999999998L954.81 0L1008.76 0L0 287.19z" fill="rgba(255, 255, 255, .025)"></path><path d="M1440 560L1425.33 560L1440 290.16z" fill="rgba(0, 0, 0, .1)"></path><path d="M1440 290.16L1425.33 560L946.02 560L1440 270.86z" fill="rgba(0, 0, 0, .075)"></path><path d="M1440 270.86L946.02 560L836.48 560L1440 193.54000000000002z" fill="rgba(0, 0, 0, .05)"></path><path d="M1440 193.54000000000002L836.48 560L728.6700000000001 560L1440 181.39000000000001z" fill="rgba(0, 0, 0, .025)"></path></g><defs><mask id="SvgjsMask1176"><rect width="1440" height="560" fill="#ffffff"></rect></mask><linearGradient x1="15.28%" y1="-39.29%" x2="84.72%" y2="139.29%" gradientUnits="userSpaceOnUse" id="SvgjsLinearGradient1177"><stop stop-color="#0e2a47" offset="0"></stop><stop stop-color="rgba(29, 28, 30, 1)" offset="1"></stop></linearGradient></defs></svg>